<svg width="9" height="9" viewBox="0 0 9 9" fill="none" xmlns="http://www.w3.org/2000/svg">
<path d="M8.42471 2.97097V3.46753C8.42471 3.88201 8.37325 4.26869 8.27032 4.62754C8.16739 4.98639 7.99214 5.30074 7.74456 5.57057C7.49698 5.83763 7.16038 6.05044 6.73476 6.209C6.30914 6.36478 5.77365 6.44267 5.12827 6.44267H4.78193C4.33684 6.44267 3.90149 6.4385 3.47587 6.43015C3.05025 6.42181 2.63437 6.38425 2.22823 6.31749V8.54989H0V0.24619C0.709361 0.162736 1.45489 0.101536 2.23657 0.0625905C3.01548 0.0208634 3.78187 0 4.53574 0H4.88207C5.57474 0 6.14919 0.0778904 6.60541 0.233672C7.05884 0.392235 7.42187 0.605044 7.69448 0.872097C7.9671 1.14193 8.15765 1.45767 8.26615 1.8193C8.37185 2.18372 8.42471 2.56761 8.42471 2.97097ZM4.43559 4.46063C4.87234 4.46063 5.21033 4.43003 5.44956 4.36883C5.6888 4.30485 5.86545 4.21722 5.9795 4.10595C6.09077 3.99468 6.15475 3.86532 6.17144 3.71789C6.18814 3.56767 6.19648 3.40215 6.19648 3.22133C6.19648 3.04052 6.18814 2.87361 6.17144 2.72061C6.15475 2.56761 6.09216 2.43686 5.98367 2.32837C5.87518 2.21988 5.70966 2.13504 5.48712 2.07384C5.26458 2.01264 4.94327 1.98204 4.52322 1.98204C4.25895 1.98204 3.91401 1.99038 3.48839 2.00708C3.06277 2.02377 2.64272 2.05298 2.22823 2.0947V4.34797C2.61768 4.39804 2.98488 4.42864 3.32982 4.43977C3.67755 4.45368 4.04614 4.46063 4.43559 4.46063Z" fill="black"/>
</svg>
