<svg width="9" height="9" viewBox="0 0 9 9" fill="none" xmlns="http://www.w3.org/2000/svg">
<path d="M4.10178 6.81404C4.54687 6.81404 4.89598 6.79179 5.14913 6.74728C5.39949 6.70277 5.58866 6.64435 5.71662 6.57203C5.84458 6.50248 5.92525 6.42459 5.95864 6.33835C5.99202 6.25212 6.00871 6.17144 6.00871 6.09634C6.00871 5.94612 5.97393 5.82789 5.90439 5.74165C5.83484 5.65542 5.72357 5.58726 5.57057 5.53719C5.41757 5.48712 5.2145 5.45235 4.96136 5.43287C4.71099 5.4134 4.40778 5.39949 4.05171 5.39115C3.84585 5.3828 3.60244 5.37028 3.32148 5.35359C3.04052 5.3369 2.75121 5.30074 2.45356 5.2451C2.1559 5.19225 1.86242 5.11436 1.57311 5.01143C1.28381 4.9085 1.0251 4.76385 0.796988 4.57747C0.571662 4.39109 0.388062 4.15741 0.24619 3.87645C0.1071 3.59549 0.0375545 3.25333 0.0375545 2.84996V2.68723C0.0375545 2.33116 0.101536 1.99038 0.229499 1.66491C0.357462 1.33944 0.575834 1.05292 0.884615 0.805334C1.1934 0.557753 1.61067 0.361635 2.13643 0.216981C2.66219 0.0723268 3.31731 0 4.10178 0H4.54826C5.11853 0 5.67211 0.0347726 6.209 0.104318C6.74589 0.173863 7.27026 0.275399 7.78211 0.408926V2.45356C7.17846 2.31168 6.58176 2.20041 5.99202 2.11974C5.39949 2.03628 4.79862 1.99456 4.1894 1.99456C3.74153 1.99456 3.38963 2.01681 3.13371 2.06132C2.87778 2.10861 2.68584 2.16703 2.55787 2.23657C2.42991 2.30612 2.34924 2.37984 2.31586 2.45773C2.28247 2.53562 2.26578 2.61212 2.26578 2.68723C2.26578 2.83745 2.30055 2.95706 2.3701 3.04608C2.44243 3.13788 2.55648 3.20882 2.71226 3.25889C2.87083 3.30896 3.0739 3.34373 3.32148 3.36321C3.56906 3.38268 3.86532 3.39659 4.21027 3.40493C4.41056 3.41328 4.64701 3.42441 4.91963 3.43832C5.19225 3.44944 5.47877 3.48283 5.77921 3.53846C6.08243 3.59132 6.38008 3.67199 6.67217 3.78048C6.96426 3.88619 7.22714 4.03223 7.46081 4.21861C7.6917 4.405 7.87947 4.64006 8.02413 4.9238C8.16878 5.21033 8.24111 5.55527 8.24111 5.95864V6.12137C8.24111 6.47744 8.17713 6.81543 8.04916 7.13534C7.9212 7.45803 7.70005 7.74317 7.3857 7.99075C7.07136 8.23833 6.65409 8.43445 6.13389 8.5791C5.61369 8.72375 4.95718 8.79608 4.16437 8.79608H3.71789C3.06416 8.79608 2.42991 8.76131 1.81513 8.69176C1.20035 8.62222 0.595307 8.52486 0 8.39967V6.31749C0.667634 6.46771 1.35891 6.58872 2.07384 6.68052C2.78876 6.76953 3.46474 6.81404 4.10178 6.81404Z" fill="black"/>
</svg>
