<svg width="31" height="31" viewBox="0 0 31 31" fill="none" xmlns="http://www.w3.org/2000/svg">
<path opacity="0.4" d="M20.9121 2.58337H10.0879C5.38623 2.58337 2.58331 5.38629 2.58331 10.088V20.8992C2.58331 25.6138 5.38623 28.4167 10.0879 28.4167H20.8991C25.6008 28.4167 28.4037 25.6138 28.4037 20.9121V10.088C28.4166 5.38629 25.6137 2.58337 20.9121 2.58337Z" fill="white"/>
<path d="M13.6659 20.1241C13.4075 20.1241 13.1621 20.0208 12.9813 19.8399L9.32586 16.1845C8.95128 15.8099 8.95128 15.1899 9.32586 14.8154C9.70044 14.4408 10.3204 14.4408 10.695 14.8154L13.6659 17.7862L20.305 11.147C20.6796 10.7724 21.2996 10.7724 21.6742 11.147C22.0488 11.5216 22.0488 12.1416 21.6742 12.5162L14.3504 19.8399C14.1696 20.0208 13.9242 20.1241 13.6659 20.1241Z" fill="white"/>
</svg>
