<svg width="41" height="41" viewBox="0 0 41 41" fill="none" xmlns="http://www.w3.org/2000/svg">
<path d="M13.8546 20.2438C9.03709 20.5855 9.05417 27.5896 13.8546 27.9313H25.2492C26.6329 27.9484 27.9654 27.4188 28.9904 26.4963C32.3729 23.5409 30.5621 17.613 26.1205 17.0492C24.5317 7.41421 10.6088 11.07 13.9059 20.2438" fill="white"/>
<path opacity="0.4" d="M15.375 38.8646C8.08041 38.8646 2.13541 32.9196 2.13541 25.625C2.13541 24.9246 2.71624 24.3438 3.41666 24.3438C4.11707 24.3438 4.69791 24.9246 4.69791 25.625C4.69791 30.6817 8.21705 34.9184 12.9491 36.0288L12.4879 35.26C12.1292 34.645 12.3171 33.8591 12.9321 33.5004C13.53 33.1416 14.3329 33.3296 14.6917 33.9446L16.4854 36.9342C16.7246 37.3271 16.7246 37.8225 16.5025 38.2154C16.2633 38.6083 15.8362 38.8646 15.375 38.8646Z" fill="white"/>
<path opacity="0.4" d="M37.5833 16.6562C36.8829 16.6562 36.3021 16.0754 36.3021 15.375C36.3021 10.3183 32.7829 6.08158 28.0508 4.97116L28.5121 5.73993C28.8708 6.35493 28.6829 7.14082 28.0679 7.49957C27.47 7.85832 26.6671 7.67038 26.3083 7.05538L24.5146 4.0658C24.2754 3.67288 24.2754 3.17747 24.4975 2.78455C24.7196 2.37455 25.1466 2.13538 25.6079 2.13538C32.9025 2.13538 38.8475 8.08038 38.8475 15.375C38.8646 16.0754 38.2837 16.6562 37.5833 16.6562Z" fill="white"/>
</svg>
