<svg width="31" height="31" viewBox="0 0 31 31" fill="none" xmlns="http://www.w3.org/2000/svg">
<path opacity="0.4" d="M24.955 12.9166H6.05793C4.14626 12.9166 2.59625 11.3537 2.59625 9.45494V6.05786C2.59625 4.14619 4.15918 2.59619 6.05793 2.59619H24.955C26.8667 2.59619 28.4167 4.15911 28.4167 6.05786V9.45494C28.4167 11.3537 26.8538 12.9166 24.955 12.9166Z" fill="white"/>
<path opacity="0.4" d="M24.955 28.4166H6.05793C4.14626 28.4166 2.59625 26.8537 2.59625 24.9549V21.5579C2.59625 19.6462 4.15918 18.0962 6.05793 18.0962H24.955C26.8667 18.0962 28.4167 19.6591 28.4167 21.5579V24.9549C28.4167 26.8537 26.8538 28.4166 24.955 28.4166Z" fill="white"/>
<path d="M7.75 10.0105C7.22042 10.0105 6.78125 9.57129 6.78125 9.04171V6.45837C6.78125 5.92879 7.22042 5.48962 7.75 5.48962C8.27958 5.48962 8.71875 5.92879 8.71875 6.45837V9.04171C8.71875 9.57129 8.27958 10.0105 7.75 10.0105Z" fill="white"/>
<path d="M12.9167 10.0105C12.3871 10.0105 11.9479 9.57129 11.9479 9.04171V6.45837C11.9479 5.92879 12.3871 5.48962 12.9167 5.48962C13.4463 5.48962 13.8854 5.92879 13.8854 6.45837V9.04171C13.8854 9.57129 13.4463 10.0105 12.9167 10.0105Z" fill="white"/>
<path d="M7.75 25.5105C7.22042 25.5105 6.78125 25.0713 6.78125 24.5417V21.9584C6.78125 21.4288 7.22042 20.9896 7.75 20.9896C8.27958 20.9896 8.71875 21.4288 8.71875 21.9584V24.5417C8.71875 25.0713 8.27958 25.5105 7.75 25.5105Z" fill="white"/>
<path d="M12.9167 25.5105C12.3871 25.5105 11.9479 25.0713 11.9479 24.5417V21.9584C11.9479 21.4288 12.3871 20.9896 12.9167 20.9896C13.4463 20.9896 13.8854 21.4288 13.8854 21.9584V24.5417C13.8854 25.0713 13.4463 25.5105 12.9167 25.5105Z" fill="white"/>
<path d="M23.25 8.71875H18.0833C17.5537 8.71875 17.1146 8.27958 17.1146 7.75C17.1146 7.22042 17.5537 6.78125 18.0833 6.78125H23.25C23.7796 6.78125 24.2187 7.22042 24.2187 7.75C24.2187 8.27958 23.7796 8.71875 23.25 8.71875Z" fill="white"/>
<path d="M23.25 24.2188H18.0833C17.5537 24.2188 17.1146 23.7796 17.1146 23.25C17.1146 22.7204 17.5537 22.2812 18.0833 22.2812H23.25C23.7796 22.2812 24.2187 22.7204 24.2187 23.25C24.2187 23.7796 23.7796 24.2188 23.25 24.2188Z" fill="white"/>
</svg>
