<svg width="33" height="33" viewBox="0 0 33 33" fill="none" xmlns="http://www.w3.org/2000/svg">
<path opacity="0.4" d="M29.2188 12.5813C26.0425 7.59006 21.395 4.71631 16.5 4.71631C14.0525 4.71631 11.6737 5.43131 9.50125 6.76506C7.32875 8.11256 5.37625 10.0788 3.78125 12.5813C2.40625 14.7401 2.40625 18.2463 3.78125 20.4051C6.9575 25.4101 11.605 28.2701 16.5 28.2701C18.9475 28.2701 21.3263 27.5551 23.4988 26.2213C25.6712 24.8738 27.6238 22.9076 29.2188 20.4051C30.5938 18.2601 30.5938 14.7401 29.2188 12.5813ZM16.5 22.0551C13.42 22.0551 10.945 19.5663 10.945 16.5001C10.945 13.4338 13.42 10.9451 16.5 10.9451C19.58 10.9451 22.055 13.4338 22.055 16.5001C22.055 19.5663 19.58 22.0551 16.5 22.0551Z" fill="white"/>
<path d="M16.5 12.5675C14.3413 12.5675 12.5813 14.3275 12.5813 16.5C12.5813 18.6588 14.3413 20.4188 16.5 20.4188C18.6588 20.4188 20.4325 18.6588 20.4325 16.5C20.4325 14.3413 18.6588 12.5675 16.5 12.5675Z" fill="white"/>
</svg>
