<svg width="40" height="40" viewBox="0 0 40 40" fill="none" xmlns="http://www.w3.org/2000/svg">
<path d="M15.5334 22.1333H20.6834V34.1333C20.6834 35.9 22.8834 36.7333 24.0501 35.4L36.6667 21.0666C37.7667 19.8166 36.8834 17.8666 35.2167 17.8666H30.0667V5.86662C30.0667 4.09995 27.8667 3.26662 26.7001 4.59995L14.0834 18.9333C13.0001 20.1833 13.8834 22.1333 15.5334 22.1333Z" fill="white"/>
<path opacity="0.4" d="M14.1667 7.91675H2.5C1.81667 7.91675 1.25 7.35008 1.25 6.66675C1.25 5.98341 1.81667 5.41675 2.5 5.41675H14.1667C14.85 5.41675 15.4167 5.98341 15.4167 6.66675C15.4167 7.35008 14.85 7.91675 14.1667 7.91675Z" fill="white"/>
<path opacity="0.4" d="M12.5 34.5833H2.5C1.81667 34.5833 1.25 34.0166 1.25 33.3333C1.25 32.6499 1.81667 32.0833 2.5 32.0833H12.5C13.1833 32.0833 13.75 32.6499 13.75 33.3333C13.75 34.0166 13.1833 34.5833 12.5 34.5833Z" fill="white"/>
<path opacity="0.4" d="M7.5 21.25H2.5C1.81667 21.25 1.25 20.6833 1.25 20C1.25 19.3167 1.81667 18.75 2.5 18.75H7.5C8.18333 18.75 8.75 19.3167 8.75 20C8.75 20.6833 8.18333 21.25 7.5 21.25Z" fill="white"/>
</svg>
