<svg width="38" height="38" viewBox="0 0 38 38" fill="none" xmlns="http://www.w3.org/2000/svg">
<path opacity="0.4" d="M34.2792 15.8809C33.6617 14.9942 32.5692 14.4876 31.3184 14.4876H24.8267C24.3992 14.4876 24.0034 14.3134 23.7342 13.9967C23.4492 13.6801 23.3384 13.2367 23.4017 12.7776L24.2092 7.58423C24.5575 6.03256 23.5284 4.2909 21.9767 3.7684C20.5359 3.23006 18.8417 3.9584 18.1609 4.98756L11.4792 14.9151L11.2892 15.2317V29.2284L11.5267 29.4659L16.5459 33.3451C17.2109 34.0101 18.715 34.3742 19.7759 34.3742H25.9509C28.0725 34.3742 30.21 32.7751 30.685 30.8276L34.58 18.9684C34.9917 17.8442 34.8809 16.7517 34.2792 15.8809Z" fill="white"/>
<path d="M8.24913 10.1016H6.61829C4.16413 10.1016 3.16663 11.0516 3.16663 13.3949V29.3232C3.16663 31.6666 4.16413 32.6166 6.61829 32.6166H8.24913C10.7033 32.6166 11.7008 31.6666 11.7008 29.3232V13.3949C11.7008 11.0516 10.7033 10.1016 8.24913 10.1016Z" fill="white"/>
</svg>
