<svg width="35" height="35" viewBox="0 0 35 35" fill="none" xmlns="http://www.w3.org/2000/svg">
<path d="M17.5 20.9709C19.4169 20.9709 20.9709 19.4169 20.9709 17.5C20.9709 15.5831 19.4169 14.0292 17.5 14.0292C15.5831 14.0292 14.0292 15.5831 14.0292 17.5C14.0292 19.4169 15.5831 20.9709 17.5 20.9709Z" fill="white"/>
<path opacity="0.4" d="M29.1667 27.3438C28.9333 27.3438 28.7146 27.2709 28.5104 27.125C28.0292 26.7604 27.9271 26.075 28.2917 25.5937C30.0562 23.2458 30.9896 20.4458 30.9896 17.5C30.9896 14.5542 30.0562 11.7542 28.2917 9.40628C27.9271 8.92503 28.0292 8.23959 28.5104 7.875C28.9917 7.51042 29.6771 7.6125 30.0417 8.09375C32.0979 10.8208 33.1771 14.0729 33.1771 17.5C33.1771 20.9271 32.0979 24.1792 30.0417 26.9063C29.8229 27.1979 29.5021 27.3438 29.1667 27.3438Z" fill="white"/>
<path opacity="0.4" d="M5.83335 27.3438C5.49794 27.3438 5.17709 27.1979 4.95834 26.9063C2.90209 24.1792 1.82294 20.9271 1.82294 17.5C1.82294 14.0729 2.90209 10.8208 4.95834 8.09375C5.32293 7.6125 6.00837 7.51042 6.48962 7.875C6.97087 8.23959 7.07295 8.92503 6.70836 9.40628C4.94378 11.7542 4.01044 14.5542 4.01044 17.5C4.01044 20.4458 4.94378 23.2458 6.70836 25.5937C7.07295 26.075 6.97087 26.7604 6.48962 27.125C6.30004 27.2709 6.06669 27.3438 5.83335 27.3438Z" fill="white"/>
<path opacity="0.4" d="M24.5 23.8438C24.2667 23.8438 24.0479 23.7709 23.8438 23.625C23.3625 23.2604 23.2605 22.575 23.625 22.0937C24.6313 20.7667 25.1563 19.1771 25.1563 17.5C25.1563 15.8229 24.6313 14.2333 23.625 12.9063C23.2605 12.425 23.3625 11.7396 23.8438 11.375C24.325 11.0104 25.0104 11.1125 25.375 11.5938C26.6583 13.3146 27.3438 15.3563 27.3438 17.5C27.3438 19.6438 26.6583 21.7 25.375 23.4062C25.1563 23.6979 24.8354 23.8438 24.5 23.8438Z" fill="white"/>
<path opacity="0.4" d="M10.5 23.8438C10.1646 23.8438 9.84376 23.6979 9.62501 23.4062C8.34168 21.6854 7.65625 19.6438 7.65625 17.5C7.65625 15.3563 8.34168 13.3 9.62501 11.5938C9.98959 11.1125 10.675 11.0104 11.1562 11.375C11.6375 11.7396 11.7396 12.425 11.375 12.9063C10.3687 14.2333 9.84375 15.8229 9.84375 17.5C9.84375 19.1771 10.3687 20.7667 11.375 22.0937C11.7396 22.575 11.6375 23.2604 11.1562 23.625C10.9667 23.7709 10.7334 23.8438 10.5 23.8438Z" fill="white"/>
</svg>
