<svg width="58" height="14" viewBox="0 0 58 14" fill="none" xmlns="http://www.w3.org/2000/svg">
<g clip-path="url(#clip0_56_256)">
<path d="M17.0229 8.61649C17.0229 9.85603 17.3656 10.7661 18.051 11.3465C18.7365 11.927 19.6544 12.2172 20.8045 12.2172C21.9663 12.2172 22.8754 11.918 23.5318 11.3194C24.1882 10.7207 24.5164 9.81979 24.5164 8.61649V0.00195312H26.3462V8.58025C26.3462 10.3095 25.7625 11.6035 24.5949 12.4621C23.4331 13.3208 21.9779 13.7501 20.2294 13.7501C18.4926 13.7501 17.0287 13.3238 15.8379 12.4712C14.6471 11.6187 14.0516 10.3216 14.0516 8.58025V0.00195312H17.0229V8.61649Z" fill="black"/>
<path d="M34.3847 0C36.3772 0 37.9456 0.362827 39.09 1.08842C40.2402 1.81403 40.824 2.71193 40.8414 3.78219L40.8501 3.96355H37.8876V3.73681C37.876 3.07169 37.5855 2.53355 37.0162 2.12238C36.4469 1.70516 35.5727 1.49652 34.3935 1.49652C33.2491 1.49652 32.3981 1.65378 31.8405 1.96819C31.2886 2.28261 31.0127 2.74518 31.0127 3.35589C31.0127 3.86381 31.2857 4.2447 31.8318 4.49866C32.3836 4.74658 33.6441 5.05801 35.6134 5.43291C37.6581 5.83197 39.0929 6.32482 39.9178 6.91137C40.7484 7.49183 41.1638 8.36861 41.1638 9.54165C41.1638 10.9384 40.5742 11.9906 39.395 12.698C38.2157 13.3994 36.598 13.7502 34.5416 13.7502C32.491 13.7502 30.8529 13.4205 29.6272 12.7614C28.4073 12.1024 27.7886 11.15 27.7712 9.90441V9.70496H30.7512V9.89541C30.7687 10.7056 31.0998 11.3042 31.7446 11.6912C32.3893 12.0721 33.3188 12.2626 34.5328 12.2626C35.747 12.2626 36.6648 12.0601 37.2863 11.6549C37.9079 11.2438 38.2244 10.7419 38.236 10.1493C38.2593 9.55075 38.0066 9.13651 37.4781 8.90669C36.9553 8.6709 35.6569 8.35041 33.5832 7.94532C31.5152 7.54622 30.0774 7.05643 29.27 6.47597C28.4625 5.88942 28.0589 5.00361 28.0589 3.81846C28.0589 2.60913 28.6165 1.67191 29.7318 1.00678C30.8472 0.335618 32.3981 0 34.3847 0Z" fill="black"/>
<path fill-rule="evenodd" clip-rule="evenodd" d="M50.245 0C52.4988 0 54.3548 0.56231 55.813 1.68698C57.2708 2.81166 58 4.47453 58 6.67552V7.04733C58 9.26041 57.2708 10.9323 55.813 12.063C54.3548 13.1877 52.4988 13.7502 50.245 13.7502C47.9853 13.7502 46.1293 13.1877 44.6771 12.063C43.2249 10.9323 42.4988 9.26041 42.4988 7.04733V6.67552C42.4988 4.47453 43.2221 2.81166 44.6685 1.68698C46.1207 0.562332 47.9796 3.93179e-06 50.245 0ZM50.245 1.53279C48.8393 1.5328 47.7066 1.95313 46.8468 2.79361C45.9929 3.6341 45.5659 4.90387 45.5659 6.60299V7.12896C45.5659 8.84019 45.9958 10.1191 46.8556 10.9657C47.7153 11.8061 48.8451 12.2263 50.245 12.2263C51.6508 12.2263 52.7836 11.8061 53.6432 10.9657C54.5091 10.1191 54.9415 8.84019 54.9415 7.12896V6.61209C54.9415 4.90695 54.5086 3.6341 53.6432 2.79361C52.7836 1.95312 51.6508 1.53279 50.245 1.53279Z" fill="black"/>
<path d="M6.36074 0.00195312C8.28929 0.00195312 9.77067 0.343531 10.8047 1.0268C11.8445 1.70403 12.3643 2.80965 12.3643 4.0734C12.3643 5.32504 11.8415 6.43357 10.7959 7.12894C10.4366 7.36925 10.0244 7.5687 9.55959 7.72738L13.1747 13.7481H9.70671L6.47135 8.18874C6.43179 8.18933 6.39207 8.18997 6.35209 8.19019H2.97129V13.7481H0V6.74076H3.90275V6.73893H6.30854C7.4587 6.73893 8.25739 6.51224 8.70466 6.05874C9.15773 5.60525 9.38435 4.85939 9.38435 4.09146C9.38435 3.31147 9.15773 2.56878 8.70466 2.13343C8.25739 1.69203 7.4587 1.4713 6.30854 1.4713L0 1.47143V0.00195312H6.36074Z" fill="black"/>
</g>
<defs>
<clipPath id="clip0_56_256">
<rect width="58" height="14" fill="white"/>
</clipPath>
</defs>
</svg>
