<svg width="25" height="20" viewBox="0 0 25 20" fill="none" xmlns="http://www.w3.org/2000/svg">
<path fill-rule="evenodd" clip-rule="evenodd" d="M1.72715 8.6425C8.42861 5.79638 12.9082 3.95681 15.1659 3.05438C21.5448 0.485925 22.8708 0.0347088 23.7309 0C23.9101 0 24.3401 0.0347091 24.6268 0.242962C24.8418 0.416506 24.9135 0.659469 24.9493 0.833013C24.9852 1.00656 25.021 1.38835 24.9852 1.70073C24.6268 5.20633 23.1575 13.7794 22.3691 17.7015C22.0465 19.3675 21.4015 19.9229 20.7923 19.9923C19.4663 20.0964 18.427 19.1246 17.1369 18.3263C15.1301 17.042 13.9833 16.2437 12.0123 14.9942C9.75457 13.5365 11.2239 12.7381 12.514 11.4539C12.8365 11.1068 18.7496 5.93521 18.8571 5.44929C18.8571 5.37987 18.8929 5.17162 18.7496 5.06749C18.6062 4.96337 18.427 4.99807 18.2837 5.03278C18.0687 5.06749 14.8434 7.15002 8.57196 11.2457C7.6402 11.8704 6.81596 12.1481 6.06339 12.1481C5.23914 12.1481 3.66233 11.6969 2.47972 11.3151C1.04625 10.8639 -0.100521 10.6209 0.00698948 9.85731C0.0786628 9.47552 0.652049 9.05901 1.72715 8.6425Z" fill="#0F0814"/>
</svg>
