<svg width="27" height="20" viewBox="0 0 27 20" fill="none" xmlns="http://www.w3.org/2000/svg">
<path fill-rule="evenodd" clip-rule="evenodd" d="M1.86532 8.6425C9.1029 5.79638 13.9409 3.95681 16.3792 3.05438C23.2684 0.485925 24.7005 0.0347088 25.6293 0C25.8229 0 26.2873 0.0347091 26.5969 0.242962C26.8292 0.416506 26.9066 0.659469 26.9453 0.833013C26.984 1.00656 27.0227 1.38835 26.984 1.70073C26.5969 5.20633 25.0101 13.7794 24.1586 17.7015C23.8103 19.3675 23.1136 19.9229 22.4556 19.9923C21.0236 20.0964 19.9012 19.1246 18.5079 18.3263C16.3405 17.042 15.102 16.2437 12.9733 14.9942C10.5349 13.5365 12.1218 12.7381 13.5151 11.4539C13.8634 11.1068 20.2495 5.93521 20.3657 5.44929C20.3657 5.37987 20.4044 5.17162 20.2495 5.06749C20.0947 4.96337 19.9012 4.99807 19.7464 5.03278C19.5142 5.06749 16.0308 7.15002 9.25771 11.2457C8.25142 11.8704 7.36123 12.1481 6.54846 12.1481C5.65828 12.1481 3.95532 11.6969 2.6781 11.3151C1.12995 10.8639 -0.108562 10.6209 0.00754864 9.85731C0.0849559 9.47552 0.704213 9.05901 1.86532 8.6425Z" fill="#2AABEE"/>
</svg>
